<?xml version="1.0" encoding="UTF-8" standalone="no"?>
<svg
   xmlns:dc="http://purl.org/dc/elements/1.1/"
   xmlns:cc="http://creativecommons.org/ns#"
   xmlns:rdf="http://www.w3.org/1999/02/22-rdf-syntax-ns#"
   xmlns:svg="http://www.w3.org/2000/svg"
   xmlns="http://www.w3.org/2000/svg"
   xmlns:xlink="http://www.w3.org/1999/xlink"
   width="85.802635mm"
   height="214.72752mm"
   viewBox="0 0 85.802635 214.72752"
   version="1.1"
   id="svg8">
  <defs
     id="defs2">
    <marker
       style="overflow:visible"
       id="marker1808"
       refX="0"
       refY="0"
       orient="auto">
      <path
         transform="matrix(0.4,0,0,0.4,4,0)"
         style="fill:#000000;fill-opacity:1;fill-rule:evenodd;stroke:#000000;stroke-width:1pt;stroke-opacity:1"
         d="M 0,0 5,-5 -12.5,0 5,5 Z"
         id="path1806" />
    </marker>
    <marker
       orient="auto"
       refY="0"
       refX="0"
       id="Arrow1Mstart"
       style="overflow:visible">
      <path
         id="path849"
         d="M 0,0 5,-5 -12.5,0 5,5 Z"
         style="fill:#000000;fill-opacity:1;fill-rule:evenodd;stroke:#000000;stroke-width:1pt;stroke-opacity:1"
         transform="matrix(0.4,0,0,0.4,4,0)" />
    </marker>
    <marker
       style="overflow:visible"
       id="marker1674"
       refX="0"
       refY="0"
       orient="auto">
      <path
         transform="matrix(-0.4,0,0,-0.4,-4,0)"
         style="fill:#000000;fill-opacity:1;fill-rule:evenodd;stroke:#000000;stroke-width:1pt;stroke-opacity:1"
         d="M 0,0 5,-5 -12.5,0 5,5 Z"
         id="path1672" />
    </marker>
    <linearGradient
       id="linearGradient1606">
      <stop
         style="stop-color:#7cd0f6;stop-opacity:1"
         offset="0"
         id="stop1602" />
      <stop
         style="stop-color:#000000;stop-opacity:1"
         offset="1"
         id="stop1604" />
    </linearGradient>
    <linearGradient
       id="linearGradient1592">
      <stop
         style="stop-color:#ffffff;stop-opacity:1"
         offset="0"
         id="stop1588" />
      <stop
         style="stop-color:#ffffff;stop-opacity:0"
         offset="1"
         id="stop1590" />
    </linearGradient>
    <marker
       orient="auto"
       refY="0"
       refX="0"
       id="marker1187"
       style="overflow:visible">
      <path
         id="path1185"
         d="M 0,0 5,-5 -12.5,0 5,5 Z"
         style="fill:#000000;fill-opacity:1;fill-rule:evenodd;stroke:#000000;stroke-width:1pt;stroke-opacity:1"
         transform="matrix(-0.4,0,0,-0.4,-4,0)" />
    </marker>
    <marker
       orient="auto"
       refY="0"
       refX="0"
       id="Arrow1Mend"
       style="overflow:visible">
      <path
         id="path852"
         d="M 0,0 5,-5 -12.5,0 5,5 Z"
         style="fill:#00832c;fill-opacity:1;fill-rule:evenodd;stroke:#00832c;stroke-width:1pt;stroke-opacity:1"
         transform="matrix(-0.4,0,0,-0.4,-4,0)" />
    </marker>
    <radialGradient
       xlink:href="#linearGradient1592"
       id="radialGradient1598"
       cx="77.688782"
       cy="143.55873"
       fx="77.688782"
       fy="143.55873"
       r="32.88393"
       gradientTransform="matrix(-0.25836964,0.27580119,0.40770954,0.38194111,80.885008,67.014237)"
       gradientUnits="userSpaceOnUse" />
    <radialGradient
       xlink:href="#linearGradient1606"
       id="radialGradient1608"
       cx="90.341415"
       cy="163.20277"
       fx="90.341415"
       fy="163.20277"
       r="32.88393"
       gradientTransform="matrix(-3.8860246,4.1646008,3.8905919,3.6298131,-157.76689,-831.32816)"
       gradientUnits="userSpaceOnUse" />
  </defs>
  <metadata
     id="metadata5">
    <rdf:RDF>
      <cc:Work
         rdf:about="">
        <dc:format>image/svg+xml</dc:format>
        <dc:type
           rdf:resource="http://purl.org/dc/dcmitype/StillImage" />
        <dc:title></dc:title>
      </cc:Work>
    </rdf:RDF>
  </metadata>
  <g
     id="layer1"
     transform="translate(-62.013847,-34.067122)">
    <path
       style="fill:none;stroke:#000000;stroke-width:2;stroke-linecap:butt;stroke-linejoin:miter;stroke-miterlimit:4;stroke-dasharray:none;stroke-opacity:1"
       d="m 141.95046,226.16319 c -8.79985,-15.24178 -17.59969,-30.48356 -26.39954,-45.72535"
       id="path1127" />
    <path
       style="fill:none;stroke:#00832c;stroke-width:4;stroke-linecap:butt;stroke-linejoin:miter;stroke-miterlimit:4;stroke-dasharray:none;stroke-opacity:1"
       d="m 104.75295,188.23214 v 55.5625"
       id="path1125" />
    <path
       id="path839"
       style="opacity:1;fill:#7cd0f6;fill-opacity:1;fill-rule:nonzero;stroke:none;stroke-width:0.499999;stroke-linejoin:round;stroke-opacity:1"
       d="m 71.869018,161.77382 a -32.88393,32.88393 0 0 0 32.883932,32.88393 -32.88393,32.88393 0 0 0 32.88393,-32.88393 -32.88393,32.88393 0 0 0 -32.88393,-32.88393 -32.88393,32.88393 0 0 0 -32.883932,32.88393 z" />
    <path
       d="m 71.869018,161.77382 a -32.88393,32.88393 0 0 0 32.883932,32.88393 -32.88393,32.88393 0 0 0 32.88393,-32.88393 -32.88393,32.88393 0 0 0 -32.88393,-32.88393 -32.88393,32.88393 0 0 0 -32.883932,32.88393 z"
       style="opacity:1;fill:url(#radialGradient1608);fill-opacity:1;fill-rule:nonzero;stroke:none;stroke-width:0.499999;stroke-linejoin:round;stroke-opacity:1"
       id="path1600" />
    <path
       style="fill:none;stroke:#000000;stroke-width:2;stroke-linecap:butt;stroke-linejoin:miter;stroke-miterlimit:4;stroke-dasharray:none;stroke-opacity:1;marker-end:url(#marker1187)"
       d="m 92.624378,140.7279 c -7.75218,-13.42719 -15.41388,-26.69762 -23.04281,-39.91133"
       id="path1183" />
    <path
       d="m 71.869018,161.77382 a -32.88393,32.88393 0 0 0 32.883932,32.88393 -32.88393,32.88393 0 0 0 32.88393,-32.88393 -32.88393,32.88393 0 0 0 -32.88393,-32.88393 -32.88393,32.88393 0 0 0 -32.883932,32.88393 z"
       style="opacity:1;fill:url(#radialGradient1598);fill-opacity:1;fill-rule:nonzero;stroke:none;stroke-width:0.499999;stroke-linejoin:round;stroke-opacity:1"
       id="path1586" />
    <path
       style="opacity:1;fill:none;fill-opacity:1;fill-rule:nonzero;stroke:#000000;stroke-width:1.12174;stroke-linejoin:round;stroke-miterlimit:4;stroke-dasharray:3.36523, 3.36523;stroke-dashoffset:0;stroke-opacity:1;marker-start:url(#Arrow1Mstart)"
       id="path1670"
       d="m -120.25939,103.71058 a 37.206738,6.6270347 0 0 1 -18.99866,-8.523198 37.206738,6.6270347 0 0 1 47.00034,-3.743707 37.206738,6.6270347 0 0 1 23.000469,8.204443"
       transform="scale(-1,1)" />
    <path
       d="m -91.865499,219.29056 a 37.206738,6.6270347 0 0 1 23.051238,7.90401 37.206738,6.6270347 0 0 1 -41.935709,4.85176 37.206738,6.6270347 0 0 1 -31.17213,-6.96446"
       id="path1804"
       style="opacity:1;fill:none;fill-opacity:1;fill-rule:nonzero;stroke:#000000;stroke-width:1.12174;stroke-linejoin:round;stroke-miterlimit:4;stroke-dasharray:3.36523, 3.36523;stroke-dashoffset:0;stroke-opacity:1;marker-start:url(#marker1808)"
       transform="scale(-1,1)" />
    <path
       style="fill:none;stroke:#00832c;stroke-width:4;stroke-linecap:butt;stroke-linejoin:miter;stroke-miterlimit:4;stroke-dasharray:none;stroke-opacity:1;marker-end:url(#Arrow1Mend)"
       d="M 104.75295,134.32631 V 44.979166"
       id="path841" />
  </g>
</svg>
